<svg id="Layer_1" height="512" viewBox="0 0 512 512" width="512" xmlns="http://www.w3.org/2000/svg" data-name="Layer 1"><path d="m489.97 120.14h-478.75v297.68a40 40 0 0 0 40 40h400a40 40 0 0 0 40-40v-297.68z" fill="#f5fcff"/><path d="m451.22 54.18h-400a40 40 0 0 0 -40 40v25.96h480v-25.96a40 40 0 0 0 -40-40z" fill="#d4e1f4"/><path d="m169.4 54.18v38.69a27.271 27.271 0 0 1 -27.27 27.27h130.56a27.271 27.271 0 0 0 27.27-27.27v-38.69z" fill="#b9c8db"/><path d="m491.22 165.01a17.243 17.243 0 0 0 -7.85-1.87h-193.2a17.419 17.419 0 0 0 -17.42 17.41v79.73a17.412 17.412 0 0 0 17.42 17.41h19.98v39.95l27.35-39.95h145.87a17.409 17.409 0 0 0 17.41-17.41v-79.73a17.408 17.408 0 0 0 -9.56-15.54z" fill="#4689d3"/><path d="m237.81 200.19 2.66 6.67a76.115 76.115 0 0 1 .15 55.9 8.241 8.241 0 0 0 -2.35-.34h-2.2v-14.76a26.153 26.153 0 0 0 -5.15-16.31c-3.26-4.35-7.91-7.75-13.44-10.66-2.5 9.84-13.86 13.43-27.48 13.43-12.57 0-23.2-2.48-26.74-11.17l-.06-.15c-9.12 6.28-15.09 12.95-15.09 24.86v14.76h-2.2a8.094 8.094 0 0 0 -3.41.74l-2.68-6.74a57.846 57.846 0 0 1 0-42.83l.41-1.05a9.03 9.03 0 0 1 8.39-5.68 10.891 10.891 0 0 0 10.87-10.88 10.892 10.892 0 0 1 8.38-10.58 10.356 10.356 0 0 1 3.64-.14c7.81.98 53.14 6.28 68.96-.15v5.55a18.217 18.217 0 0 1 -2.66 9.52z" fill="#6d7486"/><path d="m309.24 379.05a46 46 0 0 0 -17.256-22.23 47.836 47.836 0 0 0 -12.172-6.045l-58.812-19.775h-60l-58.6 19.745a46.961 46.961 0 0 0 -11.842 5.932 45.6 45.6 0 0 0 -18.276 25.677 32.168 32.168 0 0 0 -1.282 8.526v67.12h241v-67.12c-1-4.09-1.42-8.06-2.76-11.83z" fill="#f58387"/><path d="m220.83 317.27a44.431 44.431 0 0 1 -59.83-1.985v36.595a51.733 51.733 0 0 0 59.635.04l.365-.04v-34.51z" fill="#efc597"/><path d="m106.31 457.73v.09h-35.66v-66.94a47.673 47.673 0 0 1 1.52-8.55 46.022 46.022 0 0 1 18.51-25.7l.11.16a61.7 61.7 0 0 1 15.52 40.93z" fill="#c6636a"/><path d="m161.47 457.73v.09h-.07l-32.55-60.2 13.88-11.62-10.72-15.82 29.46-33.79v15.49z" fill="#c6636a"/><path d="m220.87 457.75-.04.07h-59.36v-105.94a51.238 51.238 0 0 0 59.32.04l.05-.04v105.85z" fill="#a4bdc1"/><path d="m253.38 397.62-32.51 60.13-.03-.02v-105.85-15.58l29.38 33.88-10.72 15.82z" fill="#c6636a"/><path d="m311.58 457.73v.09h-35.19v-60.1a61.72 61.72 0 0 1 15.49-40.9 45.8 45.8 0 0 1 17.15 22.23 46.91 46.91 0 0 1 2.55 11.83z" fill="#c6636a"/><path d="m240.62 262.76a8.245 8.245 0 0 1 -2.35 16.15h-2.2v5a43.98 43.98 0 0 1 -74.6 31.57c-.16-.15-.32-.31-.48-.47a43.832 43.832 0 0 1 -12.88-31.1v-5h-2.2a8.238 8.238 0 0 1 -5.83-14.07 8.239 8.239 0 0 1 5.83-2.42h2.2v-14.76c0-11.91 5.97-18.58 15.09-24.86l.06.15c3.54 8.69 14.17 11.17 26.74 11.17 13.62 0 24.98-3.59 27.48-13.43 5.53 2.91 10.18 6.31 13.44 10.66a26.153 26.153 0 0 1 5.15 16.31v14.76h2.2a8.241 8.241 0 0 1 2.35.34z" fill="#ffd8b7"/><path d="m41.22 417.82v-297.68h-30v297.68a40 40 0 0 0 40 40h30a40 40 0 0 1 -40-40z" fill="#d8e1e5"/><path d="m81.22 54.18h-30a40 40 0 0 0 -40 40v25.96h30v-25.96a40 40 0 0 1 40-40z" fill="#bdcbdb"/><path d="m302.75 260.28v-79.73a17.419 17.419 0 0 1 17.42-17.41h-30a17.419 17.419 0 0 0 -17.42 17.41v79.73a17.412 17.412 0 0 0 17.42 17.41h19.98v39.95l27.35-39.95h-17.33a17.412 17.412 0 0 1 -17.42-17.41z" fill="#69b2f4"/><g fill="#284268"><path d="m57.581 78.979a8.182 8.182 0 1 0 8.182 8.182 8.191 8.191 0 0 0 -8.182-8.182z"/><path d="m90.309 78.979a8.182 8.182 0 1 0 8.181 8.182 8.192 8.192 0 0 0 -8.181-8.182z"/><path d="m123.035 78.979a8.182 8.182 0 1 0 8.183 8.182 8.191 8.191 0 0 0 -8.183-8.182z"/><path d="m202.323 78.979a8.182 8.182 0 1 0 8.182 8.182 8.191 8.191 0 0 0 -8.182-8.182z"/><path d="m235.05 78.979a8.182 8.182 0 1 0 8.182 8.182 8.191 8.191 0 0 0 -8.182-8.182z"/><path d="m275.959 87.161a8.182 8.182 0 1 0 -8.182 8.182 8.191 8.191 0 0 0 8.182-8.182z"/><path d="m50 161.538a6 6 0 0 0 -6 6v6.295a6 6 0 0 0 12 0v-6.295a6 6 0 0 0 -6-6z"/><path d="m50 186.833a6 6 0 0 0 -6 6v76a6 6 0 0 0 12 0v-76a6 6 0 0 0 -6-6z"/><path d="m322.5 194.117c-2.808 0-5.5 1.008-5.5 3.384v24.482l-11.618-22.25c-2.736-5.256-3.991-5.616-8.023-5.616-2.808 0-5.359 1.08-5.359 3.456v45.727c0 2.305 2.692 3.456 5.5 3.456s5.5-1.156 5.5-3.456v-24.485l13.564 24.914c1.368 2.521 3.45 3.024 6.041 3.024 2.809 0 5.395-1.151 5.395-3.456v-45.797c0-2.375-2.692-3.383-5.5-3.383z"/><path d="m369.51 204c2.16 0 3.385-2.408 3.385-5.072 0-2.3-1.008-4.928-3.385-4.928h-25.634c-2.448 0-4.876 1.269-4.876 3.573v45.727c0 2.305 2.428 3.7 4.876 3.7h25.634c2.377 0 3.385-2.624 3.385-4.928 0-2.664-1.225-5.072-3.385-5.072h-19.51v-12h11.014c2.376 0 3.384-2.484 3.384-4.428 0-2.3-1.224-4.572-3.384-4.572h-11.014v-12z"/><path d="m435.535 194.117c-1.728 0-3.168.576-3.6 2.088l-10.945 36.939-5.69-24.338c-.433-1.944-2.952-2.952-5.4-2.952s-4.968 1.008-5.4 2.952l-5.688 24.338-10.945-36.939c-.431-1.512-1.872-2.088-3.6-2.088-3.241 0-7.274 2.016-7.274 4.464a3.172 3.172 0 0 0 .145.937l14.329 43.923c.792 2.52 4.1 3.745 7.417 3.745 3.24 0 6.695-1.225 7.271-3.745l3.745-17.066 3.745 17.066c.576 2.52 4.032 3.745 7.272 3.745 3.312 0 6.553-1.225 7.417-3.745l14.329-43.923a3.205 3.205 0 0 0 .145-.937c.001-2.448-4.033-4.464-7.273-4.464z"/><path d="m459.8 207.51c0-2.232 2.089-4.321 7.2-4.321 5.9 0 7.274 2.737 9.865 2.737 3.168 0 4.465-3.961 4.465-5.905 0-5.616-10.514-6.336-14.33-6.336-9 0-18.434 4.1-18.434 14.905 0 16.849 22.827 15.337 22.827 24.05 0 3.457-3.672 4.753-6.985 4.753-6.7 0-8.857-5.329-12.241-5.329-2.736 0-4.9 3.6-4.9 6.049 0 4.752 7.921 9.361 17.353 9.361 10.441 0 18-5.617 18-15.986.001-18.145-22.82-16.778-22.82-23.978z"/><path d="m497 161.328v-67.146c0-25.365-20.418-46.182-45.782-46.182h-400a46.4 46.4 0 0 0 -46.218 46.182v323.636a46.4 46.4 0 0 0 46.218 46.182h400c25.364 0 45.782-20.817 45.782-46.182v-138.227a23.731 23.731 0 0 0 10-19.312v-79.724a23.564 23.564 0 0 0 -10-19.227zm-191-68.46v-32.868h145.218a34.009 34.009 0 0 1 33.782 34.182v19.818h-186.752a33.243 33.243 0 0 0 7.752-21.132zm-131 0v-32.868h119v32.868a21.212 21.212 0 0 1 -21.313 21.132h-105a32.856 32.856 0 0 0 7.313-21.132zm-158 1.314a34.381 34.381 0 0 1 34.218-34.182h111.782v32.868a20.839 20.839 0 0 1 -20.873 21.132h-125.127zm95 357.818v-54.278a67.543 67.543 0 0 0 -12.466-39.359 44.2 44.2 0 0 1 5.032-2.029l44.64-15.055-21.739 24.955a6 6 0 0 0 -.435 7.309l7.687 11.337-9.719 8.133a6 6 0 0 0 -1.428 7.457l27.8 51.53zm43-17.762-18.779-35.164 10.242-8.467a6.021 6.021 0 0 0 1.236-7.968l-8.366-12 15.667-18.239zm60 17.762h-48v-89.779a58.773 58.773 0 0 0 48-.007zm0-103.348a46.408 46.408 0 0 1 -48 0v-21.269c8 4.135 15.988 6.51 24.936 6.51a51.51 51.51 0 0 0 23.064-5.5zm-23-26.759a38.04 38.04 0 0 1 -38-37.983v-5a5.838 5.838 0 0 0 -5.9-5.91h-2.2a2.514 2.514 0 0 1 0-5h2.2a5.566 5.566 0 0 0 5.9-5.58v-14.762c0-6.669 2.14-11.336 7.685-16.184 8.23 8.643 22.877 8.642 28.285 8.642 8.852 0 23.034-1.587 29.966-10.909 7.013 4.948 10.064 10.693 10.064 18.451v14.762c0 3.313 2.759 5.58 6.072 5.58h2.2a2.514 2.514 0 0 1 0 5h-2.2a5.989 5.989 0 0 0 -6.072 5.914v5a38.04 38.04 0 0 1 -38 37.979zm30.081-106.848a24.247 24.247 0 0 0 13.505-4.093 69.994 69.994 0 0 1 4.29 24.233c-3.983-10.369-12.639-16.134-19.594-19.805a6 6 0 0 0 -8.615 3.828c-1.972 7.75-14.424 8.908-21.671 8.908-12.2 0-19.122-2.425-21.173-7.411l-.044-.111a6 6 0 0 0 -8.982-2.733c-7.885 5.43-15.9 12.689-17.416 25.43a51.72 51.72 0 0 1 3.01-27.479l.418-1.049a3.005 3.005 0 0 1 2.807-1.906 16.892 16.892 0 0 0 16.873-16.873 4.847 4.847 0 0 1 3.749-4.743 4.462 4.462 0 0 1 1.53-.028c10.879 1.362 43.845 4.982 63.5 1.686a12.4 12.4 0 0 1 -12.182 10.146 6 6 0 0 0 0 12zm4.919 137.33 15.75 18.252-8.18 12.012a5.992 5.992 0 0 0 1.077 7.968l10.207 8.467-18.854 35.018zm43 99.625h-39.138l27.8-51.462a6.045 6.045 0 0 0 -1.429-7.491l-9.724-8.15 7.682-11.345a6.007 6.007 0 0 0 -.435-7.3l-21.656-24.972 44.666 15.082a39.649 39.649 0 0 1 4.954 2.143 67.879 67.879 0 0 0 -12.72 39.217zm36 0h-24v-54.278a55.89 55.89 0 0 1 10.619-32.442 40.229 40.229 0 0 1 10.871 15.779c1.155 3.251 1.51 6.641 2.51 10.08zm189-191.721a11.755 11.755 0 0 1 -11.721 11.721h-145.779a6 6 0 0 0 -5.028 2.457l-16.472 23.793v-20.559a5.691 5.691 0 0 0 -5.691-5.691h-20.143a11.166 11.166 0 0 1 -11.166-11.166v-80.279a11.589 11.589 0 0 1 11.555-11.555h110.445a6 6 0 0 0 0-12h-110.834a23.166 23.166 0 0 0 -23.166 23.166v80.113a23.79 23.79 0 0 0 23.721 23.721h13.279v33.64a6.072 6.072 0 0 0 4.3 5.732 6.247 6.247 0 0 0 1.811.268 5.89 5.89 0 0 0 4.971-2.457l25.579-37.183h142.618c.579 0 1.152-.028 1.721-.07v133.888a34.009 34.009 0 0 1 -33.782 34.182h-133.218v-61.119c0-.167-.217-.333-.23-.5a53.494 53.494 0 0 0 -36.086-45.39l-54.684-18.491v-6.7a50.918 50.918 0 0 0 15.152-35.4 14.227 14.227 0 0 0 5.758-24.225 81.778 81.778 0 0 0 -1.859-55.534l-1.889-4.151a24.1 24.1 0 0 0 1.838-9.83v-5.548a5.7 5.7 0 0 0 -7.911-5.558c-10.4 4.229-40.556 2.923-65.89-.248a16.106 16.106 0 0 0 -5.729.252 16.787 16.787 0 0 0 -13 16.426 4.873 4.873 0 0 1 -4.866 4.873 14.944 14.944 0 0 0 -13.955 9.469l-.416 1.051a63.686 63.686 0 0 0 0 47.262l1.025 2.573a14.292 14.292 0 0 0 6.608 23.187 50.484 50.484 0 0 0 13.134 33.49v8.611l-54.515 18.467a50.33 50.33 0 0 0 -35.7 45.42c-.014.165.212.332.212.5v9.113a6 6 0 0 0 12 0v-7.224a40.521 40.521 0 0 1 1.224-9.2 39.449 39.449 0 0 1 11.364-18.506 55.56 55.56 0 0 1 10.415 32.652v54.278h-23v-12a6 6 0 0 0 -12 0v12h-13.782a34.381 34.381 0 0 1 -34.218-34.182v-291.818h468v31.057c-.515-.034-1.032-.057-1.555-.057h-42.445a6 6 0 0 0 0 12h42.371a11.663 11.663 0 0 1 11.629 11.629z"/></g></svg>